# xmcd CD database file
#
# Track frame offsets:
#	150
#	6904
#	21154
#	24691
#	31578
#	34134
#	75481
#	78031
#	90781
#	93758
#	97958
#	117349
#	119979
#	124333
#	124858
#	162400
#	164977
#	166163
#	179707
#	186149
#	205687
#	212964
#	218121
#	225233
#	236995
#	240473
#	263186
#	269490
#	275639
#
# Disc length: 3800 seconds
#
# Revision: 1
# Processed by: cddbd v1.5.2PL0 Copyright (c) Steve Scherf et al.
# Submitted via: CDex 1.50
#
DISCID=900ed61d
DTITLE=Paxit - Left Eye Twitch
DYEAR=2007
DGENRE=Jazz
TTITLE0=Obese Leviathans
TTITLE1=Sherpa and The Ranger
TTITLE2=Smooth Flush Toilets
TTITLE3=Burgul, The Geezer Cat
TTITLE4=Andromeda
TTITLE5=000
TTITLE6=Yellow Vest, Red Box
TTITLE7=Fat Feline Buried By Window Woman
TTITLE8=Glasshead
TTITLE9=Fishy Rectums, For All I Care
TTITLE10=Cryin' Cat-like
TTITLE11=&..Avi
TTITLE12=Pecan Peach
TTITLE13=Kid
TTITLE14=TTTOAD
TTITLE15=Alon's Room
TTITLE16=Ibn-Gvirol
TTITLE17=Absorbent Paper
TTITLE18=ZERO
TTITLE19=Devil Himself
TTITLE20=The Engineer
TTITLE21=Mexico Tortilla 2
TTITLE22=Interlude (Neima)
TTITLE23=Silence, Howling, Flem
TTITLE24=Quiet, Plays
TTITLE25=Robo Buddy
TTITLE26=Wooden Teeth
TTITLE27=Selfish Gene Simmons
TTITLE28=Light - Shine
EXTD=YEAR: 2007
EXTT0=
EXTT1=
EXTT2=
EXTT3=
EXTT4=
EXTT5=
EXTT6=
EXTT7=
EXTT8=
EXTT9=
EXTT10=
EXTT11=
EXTT12=
EXTT13=
EXTT14=
EXTT15=
EXTT16=
EXTT17=
EXTT18=
EXTT19=
EXTT20=
EXTT21=
EXTT22=
EXTT23=
EXTT24=
EXTT25=
EXTT26=
EXTT27=
EXTT28=
PLAYORDER=
